<svg width="1689" height="1643" viewBox="0 0 1689 1643" fill="none" xmlns="http://www.w3.org/2000/svg">
<path d="M1593.87 394.661C1593.87 228.77 1459.39 94.2874 1293.5 94.2871C1127.61 94.2871 993.123 228.77 993.123 394.661C993.123 560.552 1127.61 695.034 1293.5 695.034C1459.39 695.034 1593.87 560.552 1593.87 394.661ZM1688.16 394.661C1688.16 612.626 1511.46 789.321 1293.5 789.321C1075.53 789.321 898.836 612.626 898.836 394.661C898.836 176.696 1075.53 0 1293.5 0C1511.46 0.000264033 1688.16 176.696 1688.16 394.661Z" fill="white"/>
<path d="M1217.09 271.934C1236.48 271.934 1253.27 275.047 1267.46 281.274C1281.72 287.422 1292.72 296.093 1300.44 307.286C1308.25 318.478 1312.15 331.603 1312.15 346.658C1312.15 355.959 1310.22 365.221 1306.36 374.443C1302.49 383.586 1295.56 393.716 1285.55 404.83C1275.54 415.944 1261.31 429.186 1242.86 444.556L1220.16 463.473V464.892H1314.75V517.388H1128.89V470.094L1219.22 395.371C1225.21 390.405 1230.33 385.754 1234.59 381.418C1238.92 377.004 1242.23 372.472 1244.52 367.822C1246.88 363.171 1248.07 358.009 1248.07 352.333C1248.07 346.107 1246.73 340.786 1244.05 336.372C1241.44 331.957 1237.82 328.568 1233.17 326.204C1228.52 323.76 1223.16 322.538 1217.09 322.538C1211.02 322.538 1205.66 323.76 1201.01 326.204C1196.44 328.647 1192.89 332.233 1190.37 336.962C1187.84 341.692 1186.58 347.446 1186.58 354.225H1124.16C1124.16 337.199 1127.98 322.538 1135.62 310.242C1143.27 297.945 1154.07 288.487 1168.02 281.866C1181.97 275.245 1198.33 271.934 1217.09 271.934ZM1462.84 517.388H1397.1V335.78H1395.68L1342.71 367.467V311.661L1402.3 275.245H1462.84V517.388Z" fill="white"/>
<path d="M898.836 394.66C898.836 428.521 903.101 461.385 911.122 492.746H260.538C170.818 492.746 98.085 565.479 98.085 655.199V1381.64C98.085 1471.36 170.818 1544.09 260.538 1544.09H1032.96C1122.68 1544.09 1195.41 1471.36 1195.41 1381.64V777.035C1226.77 785.056 1259.64 789.321 1293.5 789.321V1381.64C1293.5 1525.53 1176.85 1642.18 1032.96 1642.18H260.538L257.171 1642.16C115.952 1640.37 1.8093 1526.23 0.0205078 1385.01L0 1381.64V655.199C0 512.432 114.831 396.485 257.171 394.682L260.538 394.66H898.836Z" fill="white"/>
<path d="M856.862 1340.26L601.228 1049.68L282.145 696.578H440.307L685.826 975.201L1015.94 1340.26H856.862ZM277.547 1340.26L583.756 989.914L662.837 1062.56L430.192 1340.26H277.547ZM707.895 1041.41L630.653 971.523L852.264 696.578H1005.83L707.895 1041.41Z" fill="white"/>
</svg>
